<svg width="139" height="45" viewBox="0 0 139 45" fill="none" xmlns="http://www.w3.org/2000/svg">
<path d="M103.997 34.3613H101.097V44.6601H103.997V34.3613Z" fill="#E31F26"/>
<path d="M75.4606 20.7188H84.6675V22.8817H78.2253V24.7335H84.154V26.785H78.2253V28.8572H84.6675V31.0202H75.4606V20.7188Z" fill="#E31F26"/>
<path d="M112.911 36.6596V34.341C112.065 34.1413 111.038 34.0272 109.858 34.0272C108.185 33.9831 105.221 34.4292 105.356 37.4169C105.512 39.2894 106.85 39.7563 108.722 40.3813C110.33 40.8948 110.662 41.0271 110.595 41.7636C110.46 42.5235 109.568 42.5676 109.01 42.5884C107.942 42.5884 106.448 42.3653 105.4 42.0308V44.5283C105.4 44.5283 107.337 44.9277 109.122 44.9511C110.46 44.9511 113.401 44.505 113.647 41.6962C113.694 39.8237 112.555 39.1546 111.687 38.7759C109.412 37.8397 108.81 37.8838 108.52 37.4377C108.165 36.6363 109.101 36.2784 110.214 36.3458C110.548 36.3692 111.22 36.4132 112.911 36.6596Z" fill="#E31F26"/>
<path d="M68.9898 27.2259C69.0832 27.4696 69.161 27.7005 69.2129 27.9443C69.2595 27.7005 69.327 27.4696 69.4203 27.2284L72.0164 20.7188H75.1468L70.7327 31.0176H67.6568L63.2426 20.7188H66.3963L68.9898 27.2259Z" fill="#E31F26"/>
<path d="M83.3501 44.6601H86.9628V34.3613H84.2552V41.4935L79.9214 34.3613H76.3061V44.6601H79.0396V37.5073L83.3501 44.6601Z" fill="#E31F26"/>
<path d="M96.4395 31.0205L93.0057 26.8086C94.0534 26.8527 95.7029 26.0072 95.747 24.0673C95.8144 21.4582 94.5203 20.7217 92.5362 20.7217H85.8476V31.0205H88.7238V22.8847H91.4885C92.0227 22.8847 92.9149 22.9288 92.9149 24.1114C92.9149 25.1384 92.1783 25.3148 91.4651 25.3148H89.0117L92.9123 31.0205H96.4395Z" fill="#E31F26"/>
<path d="M65.875 34.3613H75.0794V36.5243H68.6371V38.3761H74.5684V40.4249H68.6371V42.4972H75.0794V44.6601H65.875V34.3613Z" fill="#E31F26"/>
<path d="M100.981 24.5575L98.6388 20.7217H95.3165L99.8603 27.3066V31.0205H102.736V27.3066L107.348 20.7217H104.005L101.616 24.5601C101.393 24.9154 101.297 25.1695 101.297 25.1695C101.297 25.1695 101.201 24.9128 100.981 24.5575Z" fill="#E31F26"/>
<path d="M59.9203 24.1085L60.9474 26.7616H58.1827L59.2305 24.1085C59.2305 24.1085 59.4301 23.5742 59.565 23.0373C59.7206 23.5509 59.9203 24.1085 59.9203 24.1085ZM57.3579 28.8131H61.728L62.5968 31.0176H65.6727L61.3701 20.7188H57.7366L53.4106 31.0176H56.4891L57.3579 28.8131Z" fill="#E31F26"/>
<path d="M95.7237 44.6601H99.3364V34.3613H96.6262V41.4935L92.295 34.3613H88.6823V44.6601H91.4107V37.5073L95.7237 44.6601Z" fill="#E31F26"/>
<path d="M134.445 44.6601H138.06V34.3613H135.35V41.4935L131.019 34.3613H127.403V44.6601H130.134V37.5073L134.445 44.6601Z" fill="#E31F26"/>
<path d="M47.2588 32.3136L32.6133 6.63012C31.6096 4.82504 31.633 4.93656 31.3658 4.51382C30.5852 3.10814 29.4466 1.76989 28.1992 1.03593C26.6379 0.123013 24.4308 -0.346411 22.0681 0.299371C20.0167 0.877723 18.5254 2.10445 16.8759 4.93656L14.8893 8.39111L1.58204 32.1554C0.757303 33.7608 0.936256 33.4262 0.645783 34.0279C0.246383 35.1431 0 35.7889 0 37.0156C0 40.6284 2.80877 44.6172 8.35886 44.6405C9.13951 44.6639 8.0269 44.6639 9.96424 44.6846C12.8171 44.7079 33.0594 44.6846 38.8351 44.6846C39.7273 44.6405 39.4576 44.708 40.5728 44.5964C44.4968 44.35 47.4378 42.6124 48.5322 38.8674C49.2221 36.235 48.4622 34.4065 47.2588 32.3136ZM20.2397 6.22812C21.1085 4.69017 21.9333 4.06514 22.9603 3.77467C25.3463 3.03811 27.6857 4.42045 28.3548 6.69495C28.6453 7.71939 28.5337 8.85793 27.7323 10.3959L17.1197 29.0561H14.2876L25.6783 9.06023C26.0336 8.3911 26.1477 7.85425 26.0336 7.36408C25.7665 6.40707 24.8328 5.7587 23.6943 6.09326C23.2482 6.24887 22.9136 6.516 22.4675 7.2759L10.1847 29.0121H9.7827C9.0254 29.0354 8.10989 29.1469 7.19698 29.4581L20.2397 6.22812ZM24.3426 23.6176L27.5093 29.0795H21.2667L24.3426 23.6176ZM8.37961 41.1185C7.06471 41.0511 6.15179 40.9629 5.01324 40.0267C3.14073 38.2657 3.14073 35.5477 4.83429 33.8956C5.65903 33.0942 6.79498 32.6248 8.17732 32.6015H29.4L30.8264 35.0757H7.93353C7.48745 35.0757 6.88575 35.2754 6.53044 35.6125C5.81723 36.3257 5.86132 37.485 6.59788 38.1749C6.95319 38.5328 7.4667 38.6651 7.93612 38.6651H32.883C33.4381 39.5573 33.796 40.203 34.8878 41.1159H8.37961V41.1185ZM44.9843 37.8637C44.4267 40.203 41.9292 41.6528 39.6106 40.9162C38.3164 40.4935 37.6058 39.6013 36.89 38.442L26.3889 20.0722L27.8179 17.5747L39.053 37.2594C39.5873 38.1516 39.9452 38.4628 40.3912 38.5951C41.2834 38.9089 42.3986 38.3072 42.6424 37.3242C42.7773 36.8548 42.6891 36.3646 42.243 35.5633L29.8927 13.9386C30.2714 13.0931 30.7616 12.1543 30.9172 10.8835L44.336 34.3806C44.9065 35.3817 45.3215 36.4139 44.9843 37.8637Z" fill="#E31F26"/>
<path d="M60.0552 34.3613H53.7685V44.6601H60.1226C63.7094 44.6601 64.7806 41.9188 64.8272 39.5328C64.848 37.3724 63.7328 34.3613 60.0552 34.3613ZM58.8959 42.3649H56.5773V36.6592H58.9633C60.6128 36.6592 61.951 37.3283 61.951 39.512C61.951 41.9421 60.5687 42.3649 58.8959 42.3649Z" fill="#E31F26"/>
<path d="M120.204 33.8952C116.389 33.807 114.272 35.9907 114.252 39.4478C114.226 42.9024 116.389 45.0654 120.224 44.9979C124.058 45.0654 126.221 42.9024 126.2 39.4478C126.2 35.9907 124.06 33.807 120.204 33.8952ZM120.224 42.4096C118.173 42.4096 117.079 41.227 117.079 39.3545C117.079 37.482 118.173 36.2786 120.224 36.2786C122.297 36.2786 123.368 37.482 123.368 39.3545C123.37 41.2296 122.299 42.4096 120.224 42.4096Z" fill="#E31F26"/>
</svg>
