<svg width="78" height="24" viewBox="0 0 78 24" fill="none" xmlns="http://www.w3.org/2000/svg">
<g clip-path="url(#clip0_233_11)">
<path d="M70.3591 9.60561H66.7537H66.7573H66.7171C65.3762 9.60561 64.286 8.51538 64.286 7.17454C64.286 5.83371 65.3762 4.80384 66.7171 4.80384H72.7243C75.3749 4.80384 77.5242 2.65448 77.5242 0.00390625H66.7171C62.7275 0.00390625 59.4824 3.18496 59.4824 7.17454C59.4824 11.1641 62.7275 14.4092 66.7171 14.4092H66.7573H70.3207H70.3609C71.7018 14.4092 72.792 15.4994 72.792 16.8403C72.792 18.1811 71.7018 19.2 70.3609 19.2H70.3225H64.3336C61.683 19.2 59.5336 21.3494 59.5336 23.9999H64.3317H70.3225H70.3628C74.3505 23.9999 77.5956 20.828 77.5956 16.8403C77.5956 12.8525 74.3505 9.60561 70.3628 9.60561" fill="#006E64"/>
<path d="M55.506 0.00195312C52.8555 0.00195312 50.7061 2.15132 50.7061 4.80189V23.998C53.3567 23.998 55.506 21.8486 55.506 19.1981V0.00195312Z" fill="#006E64"/>
<path d="M18.2961 9.59805C15.6455 9.59805 13.4962 11.7474 13.4962 14.398H19.615C23.6027 14.398 26.8478 11.2242 26.8478 7.23466C26.8478 3.24508 23.6027 0 19.615 0H0C0 2.65057 2.14936 4.79994 4.79994 4.79994H19.615C20.9558 4.79994 22.0461 5.89383 22.0461 7.23283C22.0461 8.57184 20.9558 9.59439 19.615 9.59439H18.2961V9.59805Z" fill="#006E64"/>
<path d="M24.0508 19.1976H11.9961C10.6772 19.1958 9.60902 18.1275 9.6017 16.8086V12.005C9.6017 9.35445 7.45234 7.20508 4.80176 7.20508V19.1976C4.80176 21.8482 6.95113 23.9976 9.6017 23.9976H24.0508H28.8508C28.8508 21.347 26.7014 19.1976 24.0508 19.1976Z" fill="#006E64"/>
<path d="M43.995 0.00195312H36.6945C34.0439 0.00195312 31.8945 2.15132 31.8945 4.80189V23.9998C34.5451 23.9998 36.6945 21.8505 36.6945 19.1999V7.20003C36.6945 5.87932 37.7646 4.80921 39.0835 4.80189H43.995C46.6456 4.80189 48.7949 2.65253 48.7949 0.00195312H43.995Z" fill="#006E64"/>
</g>
<defs>
<clipPath id="clip0_233_11">
<rect width="78" height="24" fill="white"/>
</clipPath>
</defs>
</svg>
