<svg width="301" height="47" viewBox="0 0 301 47" fill="none" xmlns="http://www.w3.org/2000/svg">
<g clip-path="url(#clip0_237_2)">
<path d="M99.9998 4.79989H109.2L103.3 32.2999H94.0998L96.3998 21.7999H76.1998L73.9998 32.2999H64.7998L70.6998 4.79989H79.8998L77.6998 14.9999H97.8998L99.9998 4.79989ZM156.2 20.6999C155.8 23.0999 157.5 25.3999 159.9 25.7999C160.1 25.7999 160.3 25.8999 160.5 25.8999C169.5 26.7999 177.8 24.8999 181.4 24.3999V30.5999C181.4 30.5999 174.7 34.1999 156 32.3999C149.8 31.7999 145.6 27.2999 147 20.9999L148 16.2999C149.4 9.99989 155.5 5.49989 161.9 4.89989C181.3 2.89989 186.4 6.99989 186.4 6.99989L183.8 13.2999C180.5 12.7999 173 10.8999 163.6 11.7999C160.2 12.0999 157.6 14.7999 157.1 16.8999L156.2 20.6999ZM198.2 15.1999L217.4 4.79989H230L208.7 16.2999L225.3 31.9999H212.7L200.8 20.4999L196.6 22.7999L194.6 32.1999H185.4L191.3 4.69989H200.5L198.2 15.1999ZM276.1 25.4999H300.7L299.2 32.2999H265.5L271.4 4.79989H280.6L276.1 25.4999ZM237.7 25.4999H262.3L260.8 32.2999H227.1L233 4.79989H266.7L265.2 11.5999H240.7L240 14.9999H254.9L246.9 21.7999H238.6L237.7 25.4999ZM118.6 25.4999H143.1L141.7 32.2999H108L113.9 4.79989H147.6L146.2 11.5999H121.6L120.9 15.0999H135.8L127.8 21.8999H119.5L118.6 25.4999ZM208.9 46.6999L209 45.9999H204.1L205 42.1999H209.2L209.3 41.5999H205.1L206 37.8999H210.9L211 37.2999H205.4L203.2 46.5999L208.9 46.6999ZM200.2 43.9999H199.5C199 45.1999 197.8 46.0999 196.5 46.0999C195.9 46.0999 195.3 45.8999 194.9 45.3999C194.4 44.6999 194.5 43.9999 195 41.9999C195.5 39.9999 195.7 39.2999 196.5 38.5999C197 38.0999 197.7 37.8999 198.4 37.8999C199.4 37.7999 200.3 38.5999 200.4 39.5999V39.9999H201.1C201.3 38.6999 200.5 37.4999 199.2 37.2999H198.6C197.7 37.2999 196.8 37.6999 196 38.2999C195 39.0999 194.7 39.9999 194.2 42.0999C193.7 44.1999 193.5 44.9999 194.2 45.8999C194.7 46.5999 195.5 46.8999 196.3 46.8999C198.1 46.7999 199.6 45.6999 200.2 43.9999ZM189.5 46.6999L191.7 37.3999H191L189.1 45.4999L185.7 37.3999H185L182.8 46.6999H183.5L185.4 38.5999L188.8 46.6999H189.5ZM178.7 43.7999H174.8L178.1 38.2999L178.7 43.7999ZM179.8 46.6999L178.6 37.3999H178L172.4 46.6999H173.2L174.6 44.3999H178.9L179.2 46.6999H179.8ZM169.5 46.6999L171.7 37.3999H171L166.1 44.5999L164.6 37.3999H163.9L161.7 46.6999H162.4L164.2 38.9999L165.6 45.3999H166.3L170.6 38.9999L168.8 46.6999H169.5ZM159 39.7999C158.8 40.9999 157.7 41.7999 156.5 41.6999H153.8L154.7 37.8999H157.4C158.6 37.8999 159.3 38.4999 159 39.7999ZM158.2 46.6999L157 42.3999C158.4 42.1999 159.4 41.1999 159.7 39.8999C160.1 38.2999 159.1 37.3999 157.6 37.3999H154.1L151.9 46.6999H152.6L153.6 42.3999H156.2L157.4 46.6999H158.2ZM148.5 41.9999C148 43.9999 147.8 44.6999 147 45.3999C146.5 45.8999 145.8 46.0999 145.1 46.0999C144.5 46.0999 143.9 45.8999 143.5 45.3999C143 44.6999 143.1 43.9999 143.6 41.9999C144.1 39.9999 144.3 39.2999 145.1 38.5999C145.6 38.0999 146.3 37.8999 147 37.8999C147.6 37.8999 148.2 38.0999 148.6 38.5999C149.1 39.2999 149 39.9999 148.5 41.9999ZM149.2 41.9999C149.7 39.8999 149.9 39.0999 149.2 38.1999C148.7 37.5999 147.9 37.1999 147.1 37.1999C146.2 37.1999 145.3 37.5999 144.5 38.1999C143.4 38.9999 143.2 39.8999 142.7 41.9999C142.2 44.0999 142 44.8999 142.7 45.7999C143.2 46.4999 144 46.7999 144.8 46.7999C145.7 46.7999 146.6 46.3999 147.4 45.7999C148.5 44.8999 148.7 44.0999 149.2 41.9999ZM141.3 37.9999L141.4 37.3999H135.8L133.6 46.6999H134.3L135.3 42.4999H139.5L139.6 41.8999H135.4L136.3 38.0999L141.3 37.9999ZM130.9 39.7999C130.7 40.9999 129.6 41.7999 128.4 41.6999H125.7L126.6 37.8999H129.3C130.5 37.8999 131.2 38.4999 130.9 39.7999ZM130.1 46.6999L128.9 42.3999C130.3 42.1999 131.3 41.1999 131.6 39.8999C132 38.2999 131 37.3999 129.5 37.3999H126L123.8 46.6999H124.5L125.5 42.3999H128.1L129.3 46.6999H130.1ZM120.4 46.6999L120.6 46.0999H115.7L116.6 42.2999H120.8L121 41.6999H116.8L117.7 37.9999H122.6L122.8 37.3999H117L114.8 46.6999H120.4ZM112.4 39.9999C112.2 41.2999 111 42.0999 109.7 42.0999H107.1L108.1 37.9999H110.7C112 37.8999 112.7 38.5999 112.4 39.9999ZM113.1 39.9999C113.5 38.9999 113 37.7999 111.9 37.3999C111.6 37.2999 111.2 37.1999 110.9 37.2999H107.5L105.3 46.5999H106L106.9 42.5999H109.6C111.3 42.6999 112.7 41.5999 113.1 39.9999ZM296.6 46.6999L297 44.9999H292.7L293.2 42.6999H296.9L297.3 41.0999H293.6L294.1 38.8999H298.4L298.8 37.2999H292.6L290.4 46.6999H296.6ZM287.9 46.6999L288.3 45.0999H284.1L285.9 37.2999H284L281.8 46.6999H287.9ZM281.9 37.2999H279.9L277.3 41.0999L276.4 37.2999H274.4L276 42.7999L275.1 46.5999H276.9L277.8 42.7999L281.9 37.2999ZM272.6 38.8999L273 37.2999H266.3L265.9 38.8999H268.3L266.5 46.6999H268.3L270.1 38.8999H272.6ZM262.6 43.8999C262.8 43.1999 262.7 42.4999 262.3 41.8999C261.9 41.4999 261.3 41.1999 260.7 41.1999L259.6 40.9999C259.3 40.9999 259 40.7999 258.8 40.5999C258.7 40.3999 258.6 40.1999 258.7 39.8999C258.9 39.0999 259.6 38.5999 260.4 38.6999C261.1 38.5999 261.7 38.8999 262.2 39.3999L263.6 38.1999C262.9 37.3999 261.9 36.9999 260.8 37.0999C259 36.9999 257.3 38.1999 256.9 39.8999C256.7 40.4999 256.8 41.1999 257.1 41.6999C257.5 42.1999 258.1 42.3999 258.7 42.4999L259.8 42.6999C260.1 42.6999 260.4 42.7999 260.6 42.9999C260.8 43.1999 260.8 43.4999 260.7 43.7999C260.5 44.5999 259.8 44.9999 258.8 44.9999C258 45.0999 257.2 44.7999 256.7 44.1999L255.3 45.3999C256.1 46.2999 257.2 46.7999 258.4 46.5999C260.4 46.7999 262.1 45.6999 262.6 43.8999ZM248.6 46.5999L250.8 37.1999H249L248.1 40.9999H245L245.9 37.1999H244L241.8 46.5999H243.6L244.5 42.6999H247.7L246.8 46.5999H248.6ZM241 38.8999L241.4 37.2999H234.7L234.3 38.8999H236.7L234.9 46.6999H236.7L238.5 38.8999H241ZM230 46.5999L232.2 37.1999H230.4L228.2 46.5999H230ZM228.2 37.1999H226.3L223.5 43.0999L223.2 37.1999H221.8L218.7 43.0999L218.6 37.1999H216.7L217 46.5999H218.5L221.5 40.8999L221.9 46.5999H223.4L228.2 37.1999Z" fill="#231F20"/>
<path d="M48.4998 14.1C46.4998 9.5 40.2998 7.2 35.9998 6.5L37.4998 0C45.4998 0.8 61.0998 5.8 58.2998 18.4C55.5998 30.4 38.6998 35.8 29.2998 36.7L30.7998 30.2C36.1998 29.4 42.7998 26.9 46.5998 22.6C40.5998 21.8 16.0998 21.8 10.0998 22.6C12.0998 27.2 18.2998 29.5 22.5998 30.2L21.0998 36.7C13.0998 35.9 -2.50017 30.9 0.299828 18.3C2.99983 6.2 19.8998 0.9 29.3998 0L27.8998 6.5C22.4998 7.3 15.7998 9.9 11.9998 14.1C17.9998 14.9 42.4998 14.9 48.4998 14.1Z" fill="#CC3333"/>
</g>
<defs>
<clipPath id="clip0_237_2">
<rect width="300.8" height="46.7" fill="white"/>
</clipPath>
</defs>
</svg>
