<svg xmlns="http://www.w3.org/2000/svg" width="512" viewBox="0 0 64 64" height="512" id="_x33_0"><g><g><g><path fill="#f0bc5e" d="m23 42h-6v-13h6z"></path></g></g><g><g><path fill="#f0bc5e" d="m31.038 36h-6v-7.038h6z"></path></g></g><g><g><path fill="#f0bc5e" d="m39 36h-6v-7.038h6z"></path></g></g><g><g><path fill="#f0bc5e" d="m46.962 36h-6v-7.038h6z"></path></g></g><g><g><path fill="#f0bc5e" d="m55 52h-6v-9h6z"></path></g></g><g><g><path fill="#f0bc5e" d="m47 52h-6v-9h6z"></path></g></g><g><g><path fill="#f0bc5e" d="m39 52h-6v-9h6z"></path></g></g><g><g><path fill="#f0bc5e" d="m31 52h-6v-9h6z"></path></g></g><g><path d="m1 57h14v2h-14z"></path><path d="m61 57c1.103 0 2-.897 2-2v-47.993c0-.863-.286-1.72-.804-2.413l-1.49-1.985c-1.014-1.353-2.875-1.939-4.487-1.401l-5.381 1.792h-21.838c-1.103 0-2 .897-2 2v3.212c0 .928.63 1.728 1.532 1.945l2.468.594v2.433c-1.145.408-1.971 1.483-1.994 2.76l-1.927.642-6.079-2.279v-2.307h4v-2h-14.064c-1.05 0-1.926.82-1.995 1.867l-.478 7.166-2.145.953.431-8.196c.112-2.125 1.867-3.79 3.995-3.79h14.256v-2h-2v-3c0-1.103-.897-2-2-2h-8c-1.103 0-2 .897-2 2v3h-.256c-3.192 0-5.824 2.497-5.992 5.685l-.485 9.213-1.059.47c-1.341.597-2.208 1.931-2.208 3.4 0 .211.018.424.054.632l4.571 26.513c.309 1.788 1.85 3.087 3.666 3.087h5.709v-2h-5.709c-.839 0-1.552-.601-1.694-1.428l-4.572-26.513c-.017-.096-.025-.194-.025-.291 0-.679.401-1.296 1.021-1.571l16.011-7.116 4.031 1.512-9.695 3.231c-.818.272-1.368 1.034-1.368 1.897v18.279c0 1.103.897 2 2 2h6v8h-2c-1.103 0-2 .897-2 2v2c0 1.103.897 2 2 2h2v4h-20v2h62v-2h-4v-4zm-48-54h8v3h-8zm-2.064 9h8.064v2.35l-8.472 3.765zm20.064 6.816v2.184h-10.838l9.485-3.162c.347.444.812.785 1.353.978zm3.353-.978 9.485 3.162h-10.838v-2.184c.541-.193 1.006-.534 1.353-.978zm6.609-12.257 5.273 6.779-9.188-2.211zm-5.818 3.715-4.606-4.296h8.288zm7.901-4.296h6.708l-1.491 6.708zm6.548 9.941 11.407-.863v1.303l-11.077 5.539-1.544-.515zm11.407 2.677v10.513l-9.011-6.008zm-12 5.382v2h-34v-2zm2 .868 9.011 6.008-9.011 4.506zm6 13.132v2h-34v-2zm0-2h-2.764l6.764-3.382v19.382h-2v-14c0-1.103-.897-2-2-2zm-.148-31.896c.808-.269 1.745.024 2.254.705l1.49 1.985c.26.348.404.778.404 1.213v5.066l-10.954.828 1.807-8.132zm-27.852 3.196 2.762 2.576-2.762-.664zm18.589 8.443-1.117 5.027-11.477-3.825c-.024-1.277-.85-2.352-1.994-2.76v-1.952zm-15.589.257c.551 0 1 .448 1 1s-.449 1-1 1-1-.448-1-1 .449-1 1-1zm-17 12h34v8h-28v6h-6zm8 16v-1-1h34v10h-34zm-4 10h42v2h-42zm34 4v4h-26v-4zm-30 0h2v4h-2zm34 4h-2v-4h2z"></path><path d="m56 11c1.654 0 3-1.346 3-3s-1.346-3-3-3-3 1.346-3 3 1.346 3 3 3zm0-4c.551 0 1 .448 1 1s-.449 1-1 1-1-.448-1-1 .449-1 1-1z"></path></g></g></svg>