<svg xmlns="http://www.w3.org/2000/svg" width="496pt" viewBox="0 0 496 496" height="496pt"><g fill="#f0bc5e"><path d="m32 160h136v48h-136zm0 0"></path><path d="m228.558594 81.199219c2.242187 4.480469 3.441406 9.441406 3.441406 14.402343 0 17.917969 14.480469 32.398438 32.398438 32.398438 8.5625 0 15.601562 7.039062 15.601562 15.601562v8.558594c0 15.519532-4.640625 30.71875-13.199219 43.679688-2.402343 3.519531-5.121093 6.71875-8.082031 9.679687l-.078125.160157c-34.71875-16.878907-58.640625-52.480469-58.640625-93.679688 0-19.121094 5.121094-37.039062 14.238281-52.398438 4.640625 4.71875 8.640625 10.078126 11.683594 16.160157zm0 0"></path><path d="m408 112c0 39.359375-21.921875 73.679688-54.160156 91.28125-1.121094-3.601562-1.839844-7.359375-1.839844-11.28125 0-8.800781-7.199219-16-16-16-13.28125 0-24-10.71875-24-24s10.71875-24 24-24c9.839844 0 18.800781-5.519531 23.121094-14.320312l1.757812-3.359376c4.320313-8.800781 13.28125-14.320312 23.121094-14.320312 8.878906 0 16.960938 2.960938 23.601562 7.839844.320313 2.71875.398438 5.441406.398438 8.160156zm0 0"></path><path d="m308.878906 8.160156c33.121094 1.519532 62.242188 18.558594 80.082032 44-4.640626 2.398438-9.839844 3.839844-15.441407 3.839844-12.960937 0-24.71875 7.921875-29.519531 20s-16.558594 20-29.519531 20h-31.359375c-10.5625 0-19.121094-8.558594-19.121094-19.121094 0-7.757812 4.71875-14.800781 12-17.679687l7.039062-2.800781c12.640626-5.039063 20.960938-17.359376 20.960938-31.039063 0-6.238281 1.839844-12.078125 4.878906-17.121094zm0 0"></path><path d="m200 112c0-17.328125 4.238281-33.65625 11.824219-48h-67.824219v64h57.246094c-.804688-5.214844-1.246094-10.550781-1.246094-16zm0 0"></path><path d="m396.222656 64c6.328125 12.078125 10.296875 25.585938 11.378906 39.839844.320313 2.71875.398438 5.441406.398438 8.160156 0 5.449219-.457031 10.777344-1.265625 16h57.265625v-64zm0 0"></path></g><path d="m448 128h-16v352h-48v-144h-160v144h-48v-352h-16v96h-80v208h80v48h-96v-272h-16v272h-16v16h432v-16h-16zm-288 192h-64v-32h64zm0 16v32h-64v-32zm0-96v32h-64v-32zm-64 176v-32h64v32zm272 64h-56v-128h56zm-128-128h56v128h-56zm0 0"></path><path d="m480 480h16v16h-16zm0 0"></path><path d="m0 480h16v16h-16zm0 0"></path><path d="m255.191406 212.894531c15.449219 7.371094 31.863282 11.105469 48.808594 11.105469 18.695312 0 37.257812-4.734375 53.679688-13.695312 35.96875-19.648438 58.320312-57.3125 58.320312-98.304688 0-2.976562-.097656-5.945312-.441406-8.921875-1.542969-20.101563-8.496094-39.308594-20.054688-55.511719-20-28.519531-51.449218-45.796875-85.847656-47.367187-1.847656-.183594-3.800781-.199219-5.65625-.199219-39.742188 0-76.792969 21.296875-96.632812 55.511719-10.054688 16.929687-15.367188 36.457031-15.367188 56.488281 0 43.28125 24.191406 81.9375 63.191406 100.894531zm-34.023437-149.277343c17.023437-29.378907 48.769531-47.617188 82.832031-47.617188h.558594c1.175781 0 2.441406.007812 3.953125.152344 29.824219 1.375 56.761719 16.167968 73.929687 40.65625 9.933594 13.917968 15.871094 30.398437 17.175782 47.640625l.03125.335937c.289062 2.398438.351562 4.808594.351562 7.214844 0 35.136719-19.160156 67.425781-49.984375 84.257812-26.847656 14.636719-60.085937 15.484376-87.871094 2.222657-33.402343-16.234375-54.144531-49.367188-54.144531-86.480469 0-17.160156 4.535156-33.863281 13.167969-48.382812zm0 0"></path><path d="m200 320h208v-80h-208zm16-32h32v16h-32zm96-16v-16h32v16zm32 16v16h-32v-16zm-48-16h-32v-16h32zm0 16v16h-32v-16zm64 16v-16h32v16zm32-32h-32v-16h32zm-144-16v16h-32v-16zm0 0"></path><path d="m328 400h16v16h-16zm0 0"></path><path d="m264 400h16v16h-16zm0 0"></path></svg>