<svg xmlns="http://www.w3.org/2000/svg" width="512" viewBox="0 0 64 64" height="512" id="Layer_5"><g><g><path fill="#f0bc5e" d="m57 16-6-4v2h-18v4h18v2z"></path></g><g><path fill="#f0bc5e" d="m7 38 6-4v2h18v4h-18v2z"></path></g><g><path d="m63 25v-18h-11v-6h-8v6h-24v-6h-8v6h-11v18h11v4h-11v18h11v14h-11v2h62v-2h-11v-14h11v-18h-11v-4zm-17-22h4v4h-4zm-32 0h4v4h-4zm4 58h-4v-14h4zm26 0h-24v-14h24zm6 0h-4v-14h4zm11-30v14h-58v-14zm-47-2v-4h4v4zm6 0v-4h24v4zm26 0v-4h4v4zm-43-6v-14h58v14z"></path><path d="m5 19h2v2h-2z"></path><path d="m5 15h2v2h-2z"></path><path d="m5 11h2v2h-2z"></path><path d="m57 37h2v2h-2z"></path><path d="m57 33h2v2h-2z"></path><path d="m57 41h2v2h-2z"></path></g></g></svg>